<?xml version="1.0" standalone="no"?>
<!DOCTYPE svg PUBLIC "-//W3C//DTD SVG 20010904//EN"
 "http://www.w3.org/TR/2001/REC-SVG-20010904/DTD/svg10.dtd">
<svg version="1.0" xmlns="http://www.w3.org/2000/svg"
 width="794.000000pt" height="667.000000pt" viewBox="0 0 794.000000 667.000000"
 preserveAspectRatio="xMidYMid meet">

<g transform="translate(0.000000,667.000000) scale(0.100000,-0.100000)"
fill="#ffffff" stroke="none">
<path d="M879 5555 c-58 -31 -75 -141 -44 -274 21 -89 65 -165 157 -276 l80
-95 -26 -31 c-14 -17 -29 -43 -32 -57 -12 -56 -16 -61 -41 -64 -88 -10 -98
-216 -17 -355 30 -51 104 -120 137 -128 47 -12 80 -1 104 33 12 18 23 38 26
45 2 7 19 -2 44 -24 22 -20 67 -55 101 -77 47 -33 68 -55 94 -104 19 -35 70
-124 113 -198 l78 -135 8 -100 c7 -105 24 -166 60 -217 21 -29 21 -31 4 -40
-73 -42 -148 -156 -160 -249 -13 -94 37 -246 116 -349 19 -25 38 -50 42 -57 4
-7 -3 -50 -17 -95 -53 -176 -94 -445 -82 -540 l7 -58 114 -94 c247 -205 622
-444 862 -550 214 -95 470 -167 908 -255 490 -99 825 -130 1110 -102 315 30
777 137 936 217 41 20 50 32 92 116 74 149 136 398 141 568 2 53 10 100 20
125 19 43 25 114 14 155 l-7 25 122 0 c167 0 269 28 384 103 72 46 94 85 94
164 0 146 -106 314 -269 427 -30 21 -33 27 -30 69 l3 46 80 34 c44 19 110 48
147 64 l68 31 76 -23 c147 -43 232 -19 440 126 140 97 159 116 174 170 21 73
-6 143 -70 181 -17 9 -30 24 -30 33 -1 8 -7 31 -14 51 -12 33 -11 38 12 65 58
70 161 212 178 244 44 88 48 194 7 226 -57 45 -233 -45 -402 -205 -51 -49 -55
-51 -85 -40 -25 9 -39 8 -66 -3 -31 -13 -38 -13 -58 0 -33 22 -83 4 -162 -59
-118 -94 -199 -213 -219 -321 -10 -55 -25 -78 -53 -78 -10 0 -55 -14 -99 -31
-44 -17 -82 -29 -84 -27 -2 2 3 46 11 98 38 255 -6 541 -119 765 -92 184 -221
334 -435 506 -149 120 -191 148 -371 245 -405 218 -817 334 -1186 334 -303 0
-575 -60 -820 -179 -152 -74 -252 -149 -385 -287 -139 -143 -190 -212 -303
-403 -26 -45 -39 -56 -73 -66 -81 -24 -165 -77 -206 -131 -42 -56 -78 -138
-78 -179 0 -14 -4 -25 -8 -25 -5 0 -37 -18 -71 -40 -34 -22 -64 -40 -66 -40
-7 0 -75 137 -92 185 -8 22 -25 93 -37 157 l-23 117 19 98 c36 181 5 415 -75
573 -37 74 -19 69 -200 56 -60 -4 -120 -12 -134 -17 -25 -9 -25 -12 -20 -69 3
-32 13 -72 22 -88 13 -22 15 -36 8 -57 -9 -27 -10 -25 -42 50 -60 142 -174
313 -239 358 -70 48 -116 57 -163 32z m114 -68 c80 -48 193 -232 269 -437 21
-57 47 -113 57 -125 11 -11 26 -36 34 -55 20 -50 66 -100 104 -116 28 -12 38
-12 66 0 93 38 87 226 -12 370 -34 49 -46 56 -102 56 -34 0 -41 4 -50 27 -5
15 -9 36 -7 47 3 19 13 22 117 31 133 12 124 18 165 -110 59 -181 71 -369 32
-520 -15 -57 -20 -97 -15 -110 4 -11 13 -51 19 -90 15 -93 43 -175 91 -263 21
-41 39 -78 39 -82 0 -5 -17 -35 -37 -67 -21 -32 -47 -78 -57 -101 l-19 -42
-25 42 c-13 24 -50 86 -81 137 -31 52 -79 138 -107 190 -30 57 -57 96 -66 96
-8 0 -22 6 -31 14 -24 19 -38 5 -26 -26 5 -14 8 -27 7 -29 -2 -1 -30 20 -63
47 -73 60 -77 80 -18 83 25 1 51 10 64 22 18 16 20 27 16 70 -7 64 -57 186
-105 256 -21 29 -58 67 -84 83 -25 17 -50 39 -56 50 -5 12 -38 57 -73 100 -81
102 -126 177 -144 240 -18 62 -21 184 -6 213 15 29 55 28 104 -1z m3087 -112
c161 -25 363 -72 491 -114 180 -61 483 -204 657 -311 76 -48 82 -53 82 -85 0
-44 87 -218 140 -277 46 -53 119 -93 151 -83 11 4 26 20 33 36 l12 29 38 -49
c96 -127 167 -271 201 -411 34 -136 28 -551 -8 -587 -7 -7 -59 -38 -117 -69
-120 -65 -301 -185 -410 -273 -42 -34 -89 -63 -107 -67 -68 -13 -823 3 -963
20 -438 54 -841 157 -1150 295 -200 89 -427 229 -582 358 -145 120 -377 400
-348 418 6 4 13 -1 16 -9 13 -33 29 -16 26 27 -3 38 7 64 78 205 125 248 238
411 389 563 197 196 328 273 581 339 254 66 287 70 495 65 105 -2 237 -11 295
-20z m-2617 -263 c58 -64 93 -221 63 -280 -21 -40 -36 -40 -80 -1 -67 58 -105
230 -62 278 23 26 57 27 79 3z m-294 -291 c64 -64 152 -266 131 -301 -4 -6
-22 -10 -39 -8 -29 3 -34 8 -50 55 -21 63 -59 114 -107 143 -56 35 -63 12 -15
-44 23 -26 48 -60 56 -76 55 -106 33 -287 -32 -266 -32 10 -102 84 -128 135
-64 127 -48 310 24 271 18 -9 22 -7 31 15 6 15 10 32 10 38 0 25 40 77 60 77
11 0 38 -18 59 -39z m4226 3 c101 -75 213 -222 198 -260 -21 -54 -129 57 -207
213 -35 69 -33 79 9 47z m-3109 -326 c-8 -18 -32 -72 -55 -119 -41 -86 -41
-87 -79 -87 -20 0 -50 -5 -65 -11 -45 -17 -47 -14 -25 40 27 65 97 142 162
180 68 39 80 38 62 -3z m4882 -220 c23 -23 13 -82 -24 -144 -51 -85 -98 -143
-220 -274 -165 -178 -216 -241 -203 -256 17 -20 35 -6 129 99 47 53 88 96 92
96 4 1 13 -17 19 -39 10 -33 9 -47 -5 -85 -17 -43 -53 -81 -171 -178 -16 -14
-26 -29 -22 -33 19 -19 131 69 210 166 l36 45 33 -33 c28 -27 33 -39 32 -77
-1 -29 -8 -52 -19 -66 -11 -11 -96 -66 -189 -122 l-170 -102 -92 0 c-51 0 -96
4 -101 8 -4 5 3 17 17 27 25 19 25 20 3 20 -59 0 -508 -185 -738 -304 -515
-268 -889 -491 -883 -525 6 -30 43 -22 118 28 89 58 209 125 215 119 8 -8 -60
-130 -104 -185 -108 -134 -200 -154 -327 -71 -50 33 -186 164 -203 196 -7 13
3 38 45 106 54 90 62 110 45 120 -18 12 -74 -49 -146 -158 -77 -118 -156 -206
-208 -232 -42 -22 -123 -21 -172 1 -23 11 -87 67 -150 132 -60 62 -129 123
-153 136 l-43 24 48 31 c27 17 62 45 78 63 30 31 30 31 5 24 -14 -4 -65 -25
-115 -47 -142 -64 -258 -107 -348 -129 -102 -25 -344 -37 -432 -20 -166 31
-274 132 -410 383 -32 59 -79 131 -106 161 l-48 54 86 7 c96 7 135 20 87 29
-16 3 -76 9 -134 12 -255 16 -465 60 -615 129 -138 64 -192 141 -202 287 -16
228 96 409 318 518 57 28 114 51 126 51 26 0 30 -21 9 -39 -27 -22 16 -128 97
-237 155 -211 421 -417 741 -574 381 -187 809 -299 1341 -352 80 -8 267 -13
486 -12 l357 0 -52 -45 c-121 -107 -143 -137 -110 -148 12 -4 32 9 219 146
295 216 609 413 857 537 79 40 92 44 100 30 9 -16 37 -22 39 -8 0 4 2 30 4 57
9 141 137 330 267 396 63 32 62 22 -4 -50 -107 -118 -159 -228 -137 -289 10
-27 39 -29 39 -2 0 83 133 283 228 342 57 35 53 7 -14 -85 -60 -84 -75 -119
-56 -131 11 -6 42 27 105 110 178 236 434 423 495 362z m-5339 -877 c34 -21
72 -41 85 -45 16 -4 37 -27 62 -68 49 -81 215 -245 330 -327 109 -77 274 -161
397 -202 58 -19 112 -46 145 -71 29 -21 83 -51 120 -65 58 -23 86 -27 217 -31
139 -4 154 -7 205 -32 101 -51 246 -109 336 -135 142 -41 246 -55 454 -59 122
-3 225 -11 275 -21 44 -9 159 -20 255 -25 96 -6 194 -13 218 -16 30 -4 58 -1
89 11 39 15 82 18 257 19 176 1 219 4 259 19 46 17 49 17 138 -4 l91 -23 -6
-30 c-19 -96 -109 -210 -190 -241 -76 -29 -100 0 -83 99 10 61 -3 96 -36 96
-33 0 -58 -20 -193 -151 -98 -96 -128 -119 -159 -125 -50 -9 -68 12 -84 96 -7
34 -17 73 -24 87 -12 28 -55 53 -90 53 -42 0 -124 -50 -205 -124 -123 -114
-168 -111 -223 12 -36 80 -60 108 -106 123 -59 19 -97 4 -181 -72 -80 -74
-136 -109 -172 -109 -30 0 -48 50 -56 161 -8 116 -14 129 -60 129 -30 0 -47
-11 -119 -80 -47 -44 -96 -82 -109 -86 -51 -12 -60 -3 -72 73 -19 113 -49 152
-117 153 -42 0 -73 -13 -202 -88 -50 -28 -104 -54 -122 -58 -48 -9 -76 25
-109 132 -29 98 -66 144 -113 144 -15 0 -59 -20 -98 -44 -39 -25 -90 -50 -113
-57 -38 -12 -44 -11 -55 5 -8 10 -16 35 -19 57 -3 21 -9 57 -12 80 -14 92 -88
122 -189 75 -66 -30 -100 -33 -109 -10 -3 9 -6 48 -6 89 0 106 -8 134 -44 156
-39 24 -75 24 -154 -1 -66 -21 -118 -25 -139 -12 -20 12 -33 60 -40 141 -3 42
-10 82 -16 89 -15 19 -52 14 -111 -15 -29 -14 -61 -23 -70 -20 -27 11 -38 57
-32 129 7 75 -5 117 -34 125 -11 3 -20 10 -20 15 0 20 76 118 91 118 5 0 35
-17 68 -39z m316 -115 c55 -14 138 -30 185 -37 148 -20 174 -44 295 -269 37
-69 74 -133 82 -143 29 -31 5 -30 -74 2 -111 47 -239 122 -340 200 -116 90
-287 271 -256 271 4 0 53 -11 108 -24z m-480 -119 c0 -81 3 -100 21 -124 34
-45 66 -51 137 -26 34 12 65 19 69 17 4 -3 8 -31 8 -62 1 -78 29 -138 74 -157
47 -20 82 -19 158 5 72 23 123 26 135 8 4 -7 10 -61 13 -119 4 -86 9 -111 24
-128 26 -29 84 -27 146 4 53 27 99 32 118 13 7 -7 12 -32 12 -57 1 -105 45
-181 105 -181 35 0 100 27 171 72 34 21 66 38 72 38 23 0 42 -34 67 -117 46
-148 101 -180 230 -132 30 11 79 36 108 56 70 47 122 73 146 73 30 0 51 -40
63 -121 12 -83 38 -119 85 -119 47 0 129 46 187 104 30 31 60 56 65 56 13 0
18 -25 25 -119 6 -90 38 -162 78 -175 49 -17 97 7 203 104 55 50 110 93 123
96 44 12 70 -11 112 -101 45 -94 70 -115 139 -115 60 0 85 14 164 88 77 72
126 106 169 117 35 9 52 -17 73 -112 19 -86 53 -123 112 -123 61 0 104 30 225
152 106 107 138 133 138 111 0 -5 -5 -27 -10 -51 -12 -51 6 -104 41 -122 63
-34 193 30 259 127 19 29 38 52 42 53 13 0 -22 -83 -49 -118 -31 -41 -98 -85
-172 -113 -201 -75 -1267 -132 -1601 -86 -168 24 -425 80 -534 117 -50 16 -92
30 -95 30 -3 -1 23 -16 59 -35 36 -19 58 -34 49 -35 -15 0 -193 49 -324 90
-445 140 -985 443 -1236 694 -170 170 -266 379 -233 504 4 13 12 21 18 19 7
-2 11 -38 11 -100z m4413 -88 c-2 -6 -7 -10 -11 -10 -4 1 -14 1 -23 1 -8 0
-12 5 -9 10 8 13 48 13 43 -1z m-40 -68 c191 -113 318 -274 330 -417 4 -57 3
-63 -27 -96 -41 -47 -149 -102 -238 -122 -88 -20 -259 -20 -364 -2 -42 8 -118
31 -170 51 -95 37 -302 152 -297 164 2 4 12 29 22 57 l19 51 161 81 c89 45
235 124 326 176 91 52 166 95 168 95 2 1 34 -17 70 -38z m-4188 -337 c449
-422 1163 -729 1977 -849 121 -18 122 -18 103 -4 -10 7 9 8 65 2 149 -15 754
-8 970 10 353 31 551 70 687 137 43 20 79 36 81 34 5 -6 -19 -162 -37 -243
-41 -181 -117 -368 -160 -396 -41 -27 -194 -72 -411 -120 -587 -130 -908 -126
-1630 21 -280 57 -548 123 -695 171 -279 90 -776 391 -1037 629 -83 75 -83 76
-83 126 0 105 85 538 106 538 2 0 31 -25 64 -56z m1973 -5 c23 -12 94 -75 157
-140 l116 -119 -36 0 c-57 0 -207 29 -319 61 -103 29 -297 105 -306 119 -2 4
26 12 63 19 37 7 105 27 152 45 103 41 119 42 173 15z m795 -167 c28 -32 73
-76 101 -97 28 -22 51 -42 51 -45 0 -3 -24 -4 -52 -2 -85 4 -318 34 -318 41 0
3 17 18 38 32 20 15 55 50 77 77 22 28 43 51 46 52 3 0 29 -26 57 -58z m731
-10 c32 -21 85 -50 120 -67 49 -23 58 -31 44 -36 -10 -4 -100 -8 -201 -8
l-183 -1 46 57 c25 31 53 69 61 85 17 32 15 33 113 -30z"/>
<path d="M3324 5305 c-209 -38 -307 -92 -259 -145 29 -32 81 -43 184 -38 84 4
106 9 176 42 44 20 92 49 107 63 33 31 36 68 9 83 -26 13 -129 11 -217 -5z
m194 -37 c-17 -49 -310 -117 -403 -94 -25 6 -26 9 -14 22 20 20 120 54 204 69
95 18 218 19 213 3z"/>
<path d="M3697 5045 c-75 -28 -175 -87 -254 -150 -126 -101 -172 -176 -132
-216 10 -10 27 -19 37 -19 72 1 388 219 448 310 49 73 0 111 -99 75z m64 -42
c-33 -61 -353 -293 -404 -293 -25 0 -21 13 21 64 54 67 165 151 266 201 95 49
133 57 117 28z"/>
<path d="M4144 4853 c-95 -104 -193 -391 -151 -447 41 -55 143 83 201 275 26
84 36 175 22 198 -13 20 -38 11 -72 -26z m52 -38 c-15 -98 -97 -292 -152 -360
l-24 -30 0 44 c0 91 61 257 129 349 41 56 55 55 47 -3z"/>
<path d="M4569 4843 c-11 -12 -14 -54 -14 -172 1 -137 3 -163 23 -212 52 -131
154 -162 196 -59 33 83 13 202 -57 334 -57 108 -115 150 -148 109z m79 -70
c86 -134 123 -277 92 -352 -29 -70 -93 -33 -125 71 -29 93 -33 328 -6 328 5 0
23 -21 39 -47z"/>
<path d="M5007 4853 c-14 -13 -6 -121 14 -193 40 -144 116 -250 179 -250 116
0 50 279 -98 413 -39 34 -79 47 -95 30z m78 -61 c35 -29 86 -111 107 -170 22
-62 29 -163 13 -169 -20 -6 -78 61 -105 122 -33 71 -65 198 -57 220 8 19 17
19 42 -3z"/>
<path d="M3095 4281 c-72 -30 -109 -166 -65 -238 38 -63 104 -53 148 22 19 33
22 51 20 109 -3 60 -7 71 -31 92 -30 25 -40 28 -72 15z"/>
<path d="M4498 3984 c-72 -39 -92 -183 -33 -244 73 -76 185 -4 185 120 0 107
-74 167 -152 124z"/>
</g>
</svg>
